<svg width="27" height="31" viewBox="0 0 27 31" fill="none" xmlns="http://www.w3.org/2000/svg">
<path d="M4.20593 30.6136C3.69896 30.4497 3.15443 30.3524 2.69028 30.1106C0.992867 29.2304 0.0435196 27.8203 0.0217387 25.8982C-0.0150636 22.5952 0.00371309 19.2884 0.014228 15.9816C0.0200672 14.8416 0.437536 13.7418 1.19027 12.8833C1.94301 12.0249 2.9807 11.4652 4.11355 11.3066C4.37029 11.2724 4.62889 11.2539 4.88789 11.2512C5.32652 11.243 5.76514 11.2512 6.24582 11.2512V10.9189C6.24582 9.65396 6.25784 8.38903 6.24582 7.1241C6.20601 3.75969 8.59816 0.848857 11.9915 0.150526C15.5681 -0.58448 19.0921 1.43267 20.2893 4.88166C20.5293 5.58978 20.6474 6.33329 20.6385 7.08069C20.6347 8.34562 20.6385 9.6098 20.6385 10.8747V11.249C20.7947 11.249 20.9389 11.249 21.0846 11.249C21.8515 11.2594 22.6168 11.2145 23.3754 11.4211C25.1479 11.9031 26.5742 13.4884 26.8123 15.3132C26.8601 15.7579 26.8802 16.2051 26.8723 16.6522C26.8799 17.9172 26.8799 19.1821 26.8723 20.447C26.8765 20.7388 26.7721 21.0217 26.5793 21.2413C26.3866 21.4609 26.1191 21.6016 25.8284 21.6364C25.5331 21.6735 25.2346 21.6001 24.9905 21.4304C24.7465 21.2608 24.5743 21.0069 24.5072 20.718C24.4834 20.5909 24.4738 20.4617 24.4787 20.3325C24.4787 18.9478 24.484 17.5631 24.4787 16.1792C24.4727 15.1635 24.0716 14.3492 23.1268 13.9061C22.756 13.7366 22.3533 13.6479 21.9454 13.6456C16.2778 13.6306 10.6103 13.6284 4.94272 13.6389C3.44735 13.6389 2.41313 14.6665 2.41013 16.1538C2.40162 19.3408 2.40162 22.5278 2.41013 25.7148C2.41013 27.1856 3.4466 28.217 4.92244 28.2185C10.599 28.225 16.2753 28.225 21.9514 28.2185C23.3348 28.2185 24.4224 27.2859 24.4832 25.7545C24.5095 25.0928 25.054 24.6198 25.7187 24.6318C26.3556 24.6467 26.8911 25.1624 26.8641 25.8061C26.8438 26.2882 26.8032 26.7904 26.6508 27.2425C26.0266 29.0852 24.7408 30.1982 22.8076 30.5485C22.7622 30.5627 22.7186 30.582 22.6776 30.6061L4.20593 30.6136ZM18.2253 11.2355C18.2313 11.1711 18.2388 11.1322 18.2388 11.094C18.2388 9.73929 18.2614 8.38454 18.2268 7.03054C18.2176 6.53347 18.132 6.04074 17.973 5.56951C17.2069 3.37497 14.9071 2.06663 12.6104 2.4783C10.2558 2.90044 8.64848 4.79858 8.64472 7.16826C8.64472 8.40325 8.64472 9.63824 8.64472 10.8732V11.2355H18.2253Z" fill="white"/>
<path d="M6.71689 21.8834C6.47962 21.8816 6.24823 21.8096 6.05207 21.6765C5.8559 21.5435 5.7038 21.3554 5.61504 21.1361C5.52629 20.9168 5.50488 20.6762 5.55353 20.4448C5.60218 20.2133 5.71871 20.0015 5.88833 19.8362C6.05794 19.6708 6.27301 19.5594 6.50626 19.516C6.73951 19.4726 6.98044 19.4993 7.19848 19.5925C7.41653 19.6858 7.60187 19.8415 7.73101 20.0398C7.86015 20.2382 7.92727 20.4703 7.92385 20.7068C7.92298 20.8632 7.89097 21.018 7.82968 21.1621C7.76839 21.3061 7.67903 21.4367 7.56678 21.5461C7.45454 21.6555 7.32162 21.7417 7.17574 21.7996C7.02985 21.8575 6.87389 21.8859 6.71689 21.8834Z" fill="white"/>
<path d="M12.422 20.6955C12.4219 20.9331 12.351 21.1653 12.2182 21.3625C12.0854 21.5598 11.8968 21.7133 11.6762 21.8034C11.4557 21.8936 11.2132 21.9163 10.9797 21.8687C10.7461 21.8212 10.532 21.7055 10.3647 21.5363C10.1973 21.3672 10.0842 21.1523 10.0397 20.9189C9.99518 20.6855 10.0213 20.4442 10.1148 20.2257C10.2083 20.0072 10.3649 19.8213 10.5647 19.6917C10.7645 19.5621 10.9984 19.4947 11.2368 19.498C11.3937 19.4984 11.5489 19.5299 11.6936 19.5904C11.8382 19.651 11.9694 19.7395 12.0796 19.8508C12.1898 19.9621 12.2767 20.0941 12.3355 20.2391C12.3943 20.384 12.4237 20.5392 12.422 20.6955Z" fill="white"/>
<path d="M16.9192 20.7157C16.9149 20.9532 16.8399 21.184 16.7037 21.3789C16.5674 21.5737 16.3761 21.7238 16.1541 21.8101C15.932 21.8963 15.6892 21.9148 15.4566 21.8632C15.224 21.8116 15.012 21.6922 14.8476 21.5203C14.6833 21.3483 14.5739 21.1316 14.5334 20.8975C14.493 20.6635 14.5233 20.4227 14.6205 20.2059C14.7176 19.989 14.8773 19.8059 15.0792 19.6797C15.2811 19.5535 15.5161 19.49 15.7543 19.4972C15.9113 19.5003 16.0661 19.5344 16.2098 19.5974C16.3535 19.6605 16.4833 19.7513 16.5916 19.8646C16.6999 19.9778 16.7846 20.1114 16.8408 20.2575C16.8971 20.4036 16.9237 20.5593 16.9192 20.7157Z" fill="white"/>
<path d="M21.4806 20.6977C21.4798 20.9343 21.4086 21.1654 21.2758 21.3615C21.143 21.5576 20.9548 21.71 20.735 21.7994C20.5151 21.8887 20.2736 21.9109 20.0411 21.8632C19.8086 21.8155 19.5955 21.7 19.4289 21.5314C19.2624 21.3628 19.1499 21.1487 19.1057 20.9162C19.0615 20.6838 19.0876 20.4435 19.1806 20.2258C19.2737 20.0082 19.4296 19.823 19.6285 19.6938C19.8274 19.5646 20.0603 19.4972 20.2977 19.5002C20.4544 19.5009 20.6095 19.5324 20.7539 19.5931C20.8983 19.6537 21.0293 19.7423 21.1393 19.8536C21.2492 19.9649 21.336 20.0968 21.3946 20.2417C21.4532 20.3866 21.4824 20.5415 21.4806 20.6977Z" fill="white"/>
</svg>
