<svg width="26" height="31" viewBox="0 0 26 31" fill="none" xmlns="http://www.w3.org/2000/svg">
<path d="M12.1201 31C9.93904 30.9761 7.00417 30.6308 4.21418 29.4943C3.40324 29.1555 2.62847 28.7333 1.90191 28.2344C0.482445 27.275 -0.134289 25.9186 0.0242997 24.1541C0.317983 20.9307 1.5025 18.1432 3.73058 15.8244C4.42269 15.1039 5.51911 15.3487 5.7707 16.2792C5.90677 16.7858 5.71784 17.1918 5.3664 17.5561C4.05755 18.9145 3.14615 20.5108 2.71639 22.3628C2.53529 23.142 2.47655 23.9551 2.37083 24.7513C2.3072 25.2349 2.51082 25.6181 2.83876 25.9455C3.44962 26.5635 4.20145 26.9476 4.98559 27.2641C6.67426 27.9448 8.44028 28.2921 10.2425 28.4742C12.0654 28.661 13.9024 28.6574 15.7246 28.4633C17.7216 28.2503 19.6854 27.8712 21.5004 26.9576C22.0603 26.6759 22.5645 26.2659 23.0569 25.8679C23.3731 25.6121 23.4886 25.2279 23.472 24.8C23.3633 21.9926 22.3844 19.5604 20.4539 17.5352C20.1416 17.2078 19.9086 16.8545 19.984 16.3827C20.0094 16.1587 20.0989 15.9472 20.2414 15.7743C20.3839 15.6015 20.5732 15.475 20.7857 15.4104C21.2664 15.2502 21.6756 15.3836 22.0231 15.7359C23.2499 16.9703 24.218 18.4447 24.8689 20.0699C25.4406 21.496 25.7226 22.9808 25.8214 24.5154C25.9193 26.1077 25.2341 27.2591 24.0349 28.1707C22.633 29.2405 21.0148 29.8167 19.3359 30.2397C17.2341 30.7781 15.0912 31.006 12.1201 31Z" fill="white"/>
<path d="M12.9023 16.6903C8.33059 16.6813 4.70361 12.9374 4.71242 8.24214C4.72123 3.6822 8.42751 -0.00794862 12.9913 1.28585e-05C17.5356 0.00797434 21.1371 3.77376 21.1264 8.50188C21.1156 12.9902 17.3907 16.6982 12.9023 16.6903ZM7.05601 8.31877C7.05601 11.6098 9.69916 14.3098 12.9111 14.3038C14.4681 14.3014 15.9608 13.6716 17.0618 12.5523C18.1628 11.433 18.7824 9.91561 18.7847 8.3327C18.7847 5.06451 16.1318 2.3805 12.8944 2.38149C9.71482 2.38846 7.05503 5.08939 7.05601 8.31877Z" fill="white"/>
</svg>
