<svg width="16" height="28" viewBox="0 0 16 28" fill="none" xmlns="http://www.w3.org/2000/svg">
<path d="M1.13878 28C0.878065 27.8328 0.576665 27.7092 0.367192 27.4883C0.138206 27.2473 0.0078269 26.9342 0.000340583 26.6074C-0.00714478 26.2806 0.108773 25.9623 0.326504 25.7118C0.417432 25.6071 0.514014 25.5072 0.615848 25.4123L12.1821 14.2576C12.2619 14.1806 12.3539 14.1123 12.4654 14.025C12.3614 13.9204 12.2876 13.8433 12.2107 13.7677C8.32867 10.0238 4.44714 6.27991 0.566119 2.536C-0.0170895 1.9734 -0.151212 1.36282 0.174299 0.758057C0.274778 0.571919 0.417101 0.409789 0.590866 0.283516C0.76463 0.157246 0.965445 0.0700232 1.17864 0.0282217C1.39183 -0.0135778 1.61201 -0.00889904 1.82308 0.0419166C2.03416 0.0927322 2.2308 0.188401 2.39863 0.321931C2.48544 0.391368 2.56844 0.465125 2.64729 0.542903C6.91209 4.65025 11.1754 8.75905 15.4372 12.8693C16.04 13.4508 16.1636 14.1035 15.7838 14.7185C15.6883 14.8652 15.5744 15 15.4447 15.1197C11.1769 19.2377 6.90707 23.3528 2.63523 27.465C2.3926 27.6933 2.05352 27.8241 1.76267 28L1.13878 28Z" fill="#980000"/>
</svg>
