<svg width="39" height="39" viewBox="0 0 39 39" fill="none" xmlns="http://www.w3.org/2000/svg">
<rect width="39" height="39" rx="7" fill="#980000"/>
<g clip-path="url(#clip0_0_1)">
<path d="M30.9998 12.8948C30.9638 13.0141 30.9306 13.1345 30.8923 13.2532C30.7606 13.6525 30.5348 14.0143 30.2341 14.3081C25.1143 19.428 19.9931 24.5456 14.8704 29.661C14.7098 29.8135 14.5096 29.9178 14.2926 29.962C12.4821 30.3147 10.6677 30.6478 8.85439 30.9842C8.3216 31.0838 7.91652 30.6832 8.01441 30.1516C8.35198 28.3157 8.68954 26.4793 9.04567 24.6469C9.08393 24.4505 9.21952 24.2468 9.36467 24.1011C12.2329 21.2201 15.1057 18.3438 17.9833 15.4722C20.0902 13.3652 22.2028 11.2638 24.3002 9.14662C24.8415 8.60032 25.3945 8.10577 26.1934 8H26.7774C27.344 8.11252 27.8464 8.34376 28.2571 8.7646C28.9097 9.43075 29.573 10.0868 30.2346 10.7445C30.541 11.0404 30.7693 11.4077 30.8991 11.8135C30.9362 11.9327 30.966 12.0543 30.9998 12.1747V12.8948ZM27.4992 15.089L23.912 11.5051C19.5237 15.8936 15.1179 20.3 10.7397 24.6778L14.3235 28.2612L27.4992 15.089ZM28.5232 14.1005C28.778 13.8445 29.0267 13.5975 29.2726 13.3466C29.775 12.8346 29.7789 12.2169 29.2765 11.6987C29.0374 11.4517 28.7904 11.2114 28.5451 10.9673C28.1277 10.5492 27.7136 10.1278 27.2911 9.71544C26.8686 9.30303 26.3408 9.20908 25.9104 9.52583C25.5385 9.80039 25.224 10.1532 24.8893 10.4665L28.5232 14.1005ZM10.1411 26.1277C9.93403 27.2462 9.72924 28.3534 9.5222 29.4809L12.872 28.8581L10.1411 26.1277Z" fill="white"/>
</g>
<defs>
<clipPath id="clip0_0_1">
<rect width="23" height="23" fill="white" transform="translate(8 8)"/>
</clipPath>
</defs>
</svg>
